Coordinates
version=1
nRows=32
nColumns=22
inDegrees=yes

Units are S.I. units (second, meters, Newtons, ...)
If the header above contains a line with 'inDegrees', this indicates whether rotational values are in degrees (yes) or radians (no).

endheader
time	pelvis_tilt	pelvis_list	pelvis_rotation	pelvis_tx	pelvis_ty	pelvis_tz	hip_flexion_r	hip_adduction_r	hip_rotation_r	knee_angle_r	ankle_angle_r	subtalar_angle_r	hip_flexion_l	hip_adduction_l	hip_rotation_l	knee_angle_l	ankle_angle_l	subtalar_angle_l	lumbar_extension	lumbar_bending	lumbar_rotation
      0.89000000	      6.72408810	     -7.86699978	      3.36745740	     -0.73909025	      0.93353222	     -0.73944859	      1.82272395	     16.54201464	     -8.55509429	    -17.43711026	     10.66015928	     -7.26260967	     13.45659270	    -15.49664527	      3.39821763	    -66.93274657	     12.11155079	    -13.94373642	    -13.12834721	      9.05119552	    -13.46188307
      0.90000000	      6.77451581	     -7.68585236	      2.37442048	     -0.72999670	      0.93488970	     -0.73685845	      0.50338731	     16.52272955	     -7.42288501	    -16.64595967	     10.70527970	     -7.28377010	     14.68075841	    -15.20383624	      3.05553772	    -66.07935522	     13.28195922	    -15.22874953	    -13.32198596	      8.67669540	    -12.91724568
      0.91000000	      6.84140772	     -7.51316815	      1.41478144	     -0.72097798	      0.93608427	     -0.73441293	     -0.78997879	     16.45775391	     -6.36197294	    -15.91129697	     10.79070702	     -7.30761080	     15.81217043	    -14.88308243	      2.76879711	    -64.95899405	     14.32832510	    -16.35972251	    -13.53870984	      8.33335142	    -12.38737669
      0.92000000	      6.90664400	     -7.36010936	      0.45465594	     -0.71197565	      0.93708957	     -0.73200288	     -2.06274993	     16.37287496	     -5.29125114	    -15.19931745	     10.88568669	     -7.33436592	     16.85349685	    -14.59156024	      2.45664236	    -63.57290277	     15.10098656	    -17.16363287	    -13.74918874	      8.02157567	    -11.89572946
      0.93000000	      6.97456874	     -7.23193609	     -0.49032607	     -0.70301553	      0.93786731	     -0.72967257	     -3.29068221	     16.27025678	     -4.26106054	    -14.55821997	     11.02476111	     -7.37801676	     17.80202757	    -14.31915368	      2.15415607	    -61.93463452	     15.74482379	    -17.76484394	    -13.96766911	      7.74992045	    -11.40793555
      0.94000000	      7.03061828	     -7.13502513	     -1.43634551	     -0.69407174	      0.93838583	     -0.72737790	     -4.46383548	     16.16320131	     -3.23988618	    -13.98774362	     11.20579802	     -7.44403792	     18.66418846	    -14.09863401	      1.81134166	    -60.05317661	     16.23823127	    -18.10747476	    -14.17489109	      7.52333268	    -10.93859288
      0.95000000	      7.02411955	     -7.08501372	     -2.41107416	     -0.68515507	      0.93853921	     -0.72504854	     -5.50714948	     16.07323320	     -2.20624714	    -13.53517359	     11.46834057	     -7.50227305	     19.49521274	    -13.96815089	      1.39836564	    -57.95655918	     16.59517406	    -18.16719666	    -14.31742244	      7.35369903	    -10.44607817
      0.96000000	      7.06553907	     -7.05069237	     -3.37645469	     -0.67622660	      0.93854702	     -0.72275687	     -6.57422018	     15.96688171	     -1.16656029	    -13.13436174	     11.73068785	     -7.61853247	     20.14998079	    -13.86483403	      0.94091997	    -55.61574786	     16.80226106	    -18.06913139	    -14.51929176	      7.20695826	     -9.98041514
      0.97000000	      7.16995369	     -7.03750206	     -4.30892758	     -0.66726076	      0.93842882	     -0.72051990	     -7.68213134	     15.84914613	     -0.15692638	    -12.78017815	     11.98788603	     -7.86448240	     20.61297092	    -13.78535692	      0.45505437	    -53.04118016	     16.85848783	    -17.60376809	    -14.79433351	      7.08715339	     -9.56793197
      0.98000000	      7.19519063	     -7.07040022	     -5.26465513	     -0.65832524	      0.93793313	     -0.71823832	     -8.62936653	     15.75873759	      0.87316105	    -12.57575980	     12.33125145	     -8.07114752	     21.05987500	    -13.78416506	     -0.09203401	    -50.29975597	     16.77832910	    -16.86390472	    -14.98988241	      7.02606111	     -9.13577271
      0.99000000	      7.19317043	     -7.12925727	     -6.20914314	     -0.64938335	      0.93717181	     -0.71598306	     -9.48308112	     15.67521230	      1.87169076	    -12.49440631	     12.73556177	     -8.27383051	     21.42702943	    -13.80476664	     -0.64978217	    -47.39057967	     16.55284287	    -15.82794984	    -15.16014033	      7.00589719	     -8.72766244
      1.00000000	      7.16966212	     -7.20867177	     -7.13669653	     -0.64042735	      0.93617018	     -0.71373988	    -10.25342520	     15.59850475	      2.84039553	    -12.53110476	     13.19059612	     -8.45918415	     21.71051148	    -13.83715818	     -1.20780230	    -44.33651246	     16.21038323	    -14.53925533	    -15.31152347	      7.01808003	     -8.34638236
      1.01000000	      7.10940217	     -7.29503917	     -8.04726556	     -0.63145900	      0.93492048	     -0.71153926	    -10.91123326	     15.51978689	      3.76173704	    -12.70748760	     13.70071602	     -8.63147392	     21.93342228	    -13.84602406	     -1.71378612	    -41.17174514	     15.74594427	    -12.99650788	    -15.42559001	      7.05644961	     -8.00357268
      1.02000000	      6.99913255	     -7.38177327	     -8.93549329	     -0.62245199	      0.93341356	     -0.70936598	    -11.45399245	     15.44146523	      4.61597046	    -13.00102276	     14.25829863	     -8.79326200	     22.11962057	    -13.81896293	     -2.12270209	    -37.93749939	     15.20245162	    -11.26572731	    -15.47971954	      7.11079918	     -7.68794955
      1.03000000	      6.90774582	     -7.46370844	     -9.82273934	     -0.61335867	      0.93179021	     -0.70720855	    -11.98329109	     15.34322459	      5.46651778	    -13.37489991	     14.83068675	     -8.93488179	     22.17617518	    -13.74572655	     -2.44305150	    -34.66416735	     14.74604702	     -9.54563193	    -15.55259988	      7.16686194	     -7.40256516
      1.04000000	      6.76267660	     -7.52727584	    -10.69262823	     -0.60418820	      0.92993325	     -0.70508412	    -12.39889711	     15.23125490	      6.23313044	    -13.85502760	     15.44251065	     -9.09155510	     22.22719383	    -13.61268934	     -2.58698547	    -31.44144598	     14.28914706	     -7.74619646	    -15.55445209	      7.22261467	     -7.15093303
      1.05000000	      6.60268590	     -7.56712601	    -11.55307373	     -0.59490378	      0.92792878	     -0.70296571	    -12.76413162	     15.09353490	      6.93951974	    -14.40458083	     16.06917577	     -9.26004988	     22.23724603	    -13.42195066	     -2.55229811	    -28.33541493	     13.92649219	     -6.01617252	    -15.52452700	      7.26234676	     -6.93196419
      1.06000000	      6.43704322	     -7.57576561	    -12.40199198	     -0.58547374	      0.92581429	     -0.70085246	    -13.10333282	     14.91872119	      7.58258351	    -14.99398062	     16.69698506	     -9.44348492	     22.22160532	    -13.17751475	     -2.33725117	    -25.43389417	     13.68052432	     -4.39561316	    -15.46626115	      7.27834791	     -6.74574803
      1.07000000	      6.28017741	     -7.54750354	    -13.23544971	     -0.57588179	      0.92363698	     -0.69870865	    -13.43792502	     14.70134578	      8.15845443	    -15.60615943	     17.32362890	     -9.63390363	     22.18732301	    -12.88725870	     -1.97230026	    -22.82078535	     13.54894124	     -2.93115996	    -15.39106351	      7.25335075	     -6.59067662
      1.08000000	      6.15163437	     -7.47881939	    -14.05485805	     -0.56611890	      0.92146805	     -0.69652971	    -13.79035422	     14.42678650	      8.64015437	    -16.23201493	     17.94610756	     -9.81299766	     22.13407558	    -12.55477583	     -1.49709536	    -20.57641147	     13.51285761	     -1.65362814	    -15.31840981	      7.17685235	     -6.44052467
      1.09000000	      6.06111520	     -7.36597767	    -14.83933589	     -0.55617312	      0.91935488	     -0.69431129	    -14.18073484	     14.09677476	      9.07021073	    -16.84585743	     18.51889756	     -9.97067264	     22.07901373	    -12.17571745	     -0.94350290	    -18.77505683	     13.54643604	     -0.51796312	    -15.25022074	      7.04400451	     -6.35805595
      1.10000000	      6.00825448	     -7.20785555	    -15.58623111	     -0.54604984	      0.91735043	     -0.69204548	    -14.61546277	     13.70594670	      9.43164724	    -17.42288712	     19.04792990	    -10.07840007	     22.02474637	    -11.74762839	     -0.33159913	    -17.44224432	     13.60901039	      0.45142666	    -15.18734066	      6.84940146	     -6.30293760
      1.11000000	      6.00608461	     -7.00145546	    -16.29399088	     -0.53577126	      0.91550992	     -0.68976848	    -15.07588270	     13.24568638	      9.71404758	    -18.01797389	     19.51824562	    -10.11349180	     21.95563465	    -11.25722865	      0.32674968	    -16.57950993	     13.65994616	      1.21410167	    -15.14277036	      6.59259775	     -6.28296198
      1.12000000	      6.01744041	     -6.75549821	    -16.95408509	     -0.52536003	      0.91379980	     -0.68746769	    -15.53343407	     12.74454237	      9.96510770	    -18.60639639	     19.95903617	    -10.07757031	     21.92427379	    -10.71167402	      1.09528377	    -16.20394606	     13.64184710	      1.65831857	    -15.07672056	      6.28786393	     -6.27173415
      1.13000000	      6.08841746	     -6.46666256	    -17.57258519	     -0.51478115	      0.91235558	     -0.68513941	    -16.01953226	     12.17544699	     10.14197305	    -19.21543000	     20.21624285	     -9.98723433	     21.82944515	    -10.09637924	      1.92032450	    -16.20467976	     13.48249944	      2.06943717	    -15.03413921	      5.91904523	     -6.29257502
      1.14000000	      6.16695883	     -6.15238060	    -18.14856029	     -0.50405705	      0.91111288	     -0.68280526	    -16.48001142	     11.58034387	     10.31433624	    -19.85111423	     20.31289137	     -9.82092474	     21.73864035	     -9.43202819	      2.84890801	    -16.57100788	     13.17305561	      2.30610552	    -14.96566046	      5.53009772	     -6.32719048
      1.15000000	      6.25641490	     -5.80448486	    -18.67475664	     -0.49315095	      0.91008847	     -0.68047638	    -16.90502034	     10.95017749	     10.44728548	    -20.52864427	     20.26431650	     -9.48070172	     21.64189473	     -8.69824054	      3.89167755	    -17.24148434	     12.73231569	      2.35865142	    -14.86221727	      5.11105965	     -6.38121627
      1.16000000	      6.30530759	     -5.44546642	    -19.16678111	     -0.48213878	      0.90922752	     -0.67813796	    -17.21796588	     10.33397367	     10.57811436	    -21.30126183	     20.04308792	     -9.16136215	     21.60656814	     -7.93643708	      5.01806681	    -18.18717562	     12.03760583	      2.17972996	    -14.68911883	      4.70355209	     -6.44128467
      1.17000000	      6.31850588	     -5.06818591	    -19.62547035	     -0.47093197	      0.90855607	     -0.67581231	    -17.43202498	      9.72122544	     10.72033791	    -22.15330379	     19.61493610	     -8.50074529	     21.60088169	     -7.13046849	      6.22131831	    -19.30704114	     11.31743089	      1.72033992	    -14.43673531	      4.30985757	     -6.49446110
      1.18000000	      6.31754367	     -4.67244478	    -20.02440021	     -0.45953634	      0.90809048	     -0.67349379	    -17.55200818	      9.11390590	     10.78077813	    -23.10421714	     19.00367592	     -8.11613283	     21.63035514	     -6.27925537	      7.40576867	    -20.58126642	     10.50983819	      1.32196804	    -14.13063065	      3.91842355	     -6.60248130
      1.19000000	      6.27424316	     -4.28955341	    -20.42722701	     -0.44801390	      0.90783698	     -0.67105601	    -17.55418289	      8.55041447	     10.88075504	    -24.16999366	     18.12344767	     -7.47299363	     21.68675570	     -5.46074523	      8.48206218	    -21.93035870	      9.82984921	      0.67344137	    -13.76020494	      3.55587325	     -6.64913889
      1.20000000	      6.24685529	     -3.90511771	    -20.79368856	     -0.43630761	      0.90786141	     -0.66853039	    -17.50075421	      7.99825218	     10.91402076	    -25.32272756	     16.98219489	     -6.90944211	     21.72201330	     -4.65206138	      9.34857297	    -23.31887272	      9.28530617	      0.01997773	    -13.37769406	      3.19321874	     -6.72728137
